<svg width="48" height="48" viewBox="0 0 48 48" fill="none" xmlns="http://www.w3.org/2000/svg">
<path d="M40.0903 33.8789V38.2282H39.1983L37.4675 35.718H37.4399V38.2282H36.3887V33.8789H37.2934L39.0051 36.3849H39.0412V33.8789H40.0903Z" fill="black"/>
<path d="M36.0151 36.0525C36.0151 36.531 35.9231 36.9366 35.739 37.2694C35.555 37.6021 35.3058 37.8548 34.9915 38.0275C34.6786 38.2002 34.3275 38.2866 33.9381 38.2866C33.5474 38.2866 33.1955 38.1995 32.8827 38.0254C32.5698 37.8512 32.3213 37.5985 32.1372 37.2672C31.9546 36.9345 31.8633 36.5296 31.8633 36.0525C31.8633 35.5739 31.9546 35.1683 32.1372 34.8356C32.3213 34.5029 32.5698 34.2502 32.8827 34.0774C33.1955 33.9047 33.5474 33.8184 33.9381 33.8184C34.3275 33.8184 34.6786 33.9047 34.9915 34.0774C35.3058 34.2502 35.555 34.5029 35.739 34.8356C35.9231 35.1683 36.0151 35.5739 36.0151 36.0525ZM34.9405 36.0525C34.9405 35.7693 34.9002 35.5301 34.8195 35.3347C34.7402 35.1393 34.6255 34.9913 34.4754 34.8908C34.3268 34.7903 34.1477 34.74 33.9381 34.74C33.73 34.74 33.5509 34.7903 33.4008 34.8908C33.2508 34.9913 33.1354 35.1393 33.0547 35.3347C32.9754 35.5301 32.9357 35.7693 32.9357 36.0525C32.9357 36.3356 32.9754 36.5749 33.0547 36.7703C33.1354 36.9657 33.2508 37.1136 33.4008 37.2141C33.5509 37.3147 33.73 37.3649 33.9381 37.3649C34.1477 37.3649 34.3268 37.3147 34.4754 37.2141C34.6255 37.1136 34.7402 36.9657 34.8195 36.7703C34.9002 36.5749 34.9405 36.3356 34.9405 36.0525Z" fill="black"/>
<path d="M31.4887 33.8789V38.2282H30.4375V33.8789H31.4887Z" fill="black"/>
<path d="M26.4873 34.7326V33.8789H30.1634V34.7326H28.8446V38.2282H27.8082V34.7326H26.4873Z" fill="black"/>
<path d="M23.7392 38.2282H22.6094L24.0768 33.8789H25.4764L26.9438 38.2282H25.814L24.7925 34.9747H24.7585L23.7392 38.2282ZM23.5884 36.5165H25.9499V37.315H23.5884V36.5165Z" fill="black"/>
<path d="M19.3916 34.7326V33.8789H23.0677V34.7326H21.7489V38.2282H20.7125V34.7326H19.3916Z" fill="black"/>
<path d="M18.0648 33.8789H19.1139V36.6843C19.1139 37.0085 19.0368 37.291 18.8825 37.5317C18.7281 37.7709 18.5129 37.9564 18.2369 38.0881C17.9608 38.2183 17.6401 38.2834 17.2748 38.2834C16.9053 38.2834 16.5825 38.2183 16.3064 38.0881C16.0304 37.9564 15.8159 37.7709 15.663 37.5317C15.51 37.291 15.4336 37.0085 15.4336 36.6843V33.8789H16.4848V36.593C16.4848 36.7431 16.5174 36.8768 16.5825 36.9944C16.6491 37.1119 16.7418 37.2039 16.8607 37.2704C16.9796 37.337 17.1177 37.3703 17.2748 37.3703C17.432 37.3703 17.5693 37.337 17.6868 37.2704C17.8058 37.2039 17.8985 37.1119 17.965 36.9944C18.0316 36.8768 18.0648 36.7431 18.0648 36.593V33.8789Z" fill="black"/>
<path d="M11.7715 38.2282V33.8789H13.5681C13.8938 33.8789 14.1748 33.9426 14.4112 34.07C14.6491 34.196 14.8324 34.3723 14.9613 34.5988C15.0901 34.8239 15.1545 35.0859 15.1545 35.3846C15.1545 35.6847 15.0887 35.9474 14.957 36.1725C14.8268 36.3962 14.6406 36.5696 14.3985 36.6928C14.1564 36.816 13.869 36.8776 13.5363 36.8776H12.4277V36.0493H13.3409C13.4995 36.0493 13.6318 36.0217 13.738 35.9665C13.8456 35.9113 13.927 35.8341 13.9822 35.735C14.0375 35.6345 14.0651 35.5177 14.0651 35.3846C14.0651 35.2501 14.0375 35.134 13.9822 35.0363C13.927 34.9372 13.8456 34.8608 13.738 34.807C13.6304 34.7532 13.498 34.7263 13.3409 34.7263H12.8227V38.2282H11.7715Z" fill="black"/>
<path d="M8.31934 38.2282V33.8789H11.352V34.7326H9.37056V35.6246H11.1969V36.4804H9.37056V37.3745H11.352V38.2282H8.31934Z" fill="black"/>
<path d="M4.59961 38.2282V33.8789H6.39625C6.72188 33.8789 7.00292 33.9377 7.23935 34.0552C7.47721 34.1713 7.66055 34.3383 7.78939 34.5564C7.91823 34.773 7.98265 35.0299 7.98265 35.3273C7.98265 35.6288 7.91681 35.8851 7.78514 36.096C7.65347 36.3056 7.46659 36.4656 7.22449 36.576C6.98239 36.685 6.69569 36.7395 6.36439 36.7395H5.22822V35.9113H6.16902C6.32758 35.9113 6.45996 35.8907 6.56615 35.8497C6.67375 35.8072 6.75515 35.7435 6.81037 35.6586C6.86559 35.5722 6.89319 35.4618 6.89319 35.3273C6.89319 35.1928 6.86559 35.0816 6.81037 34.9938C6.75515 34.9046 6.67375 34.8381 6.56615 34.7942C6.45855 34.7489 6.32617 34.7263 6.16902 34.7263H5.65084V38.2282H4.59961ZM7.04822 36.2404L8.1313 38.2282H6.98451L5.92267 36.2404H7.04822Z" fill="black"/>
<path d="M11.566 9.79973L2.32617 31.8166H8.13719L10.3028 26.7275L7.48751 23.5513H11.566L15.0671 15.2498L14.8144 24.3814H9.79748L14.5257 29.7593V31.7805H20.5533L20.7337 9.79973H11.566Z" fill="black"/>
<path d="M21.9248 9.72754L21.7444 31.7805H30.8759L38.5999 13.1564L36.1095 9.72754H30.8399L33.0055 12.6511L27.4832 26.1861L27.8441 9.72754H21.9248Z" fill="black"/>
<path d="M45.6742 9.72754H37.1562L39.4661 12.7594L35.3515 31.7805L40.8738 31.7444L45.6742 9.72754Z" fill="black"/>
<path d="M11.566 9.79973L2.32617 31.8166H8.13719L10.3028 26.7275L7.48751 23.5513H11.566L15.0671 15.2498L14.8144 24.3814H9.79748L14.5257 29.7593V31.7805H20.5533L20.7337 9.79973H11.566Z" stroke="black" stroke-width="0.105727"/>
<path d="M21.9248 9.72754L21.7444 31.7805H30.8759L38.5999 13.1564L36.1095 9.72754H30.8399L33.0055 12.6511L27.4832 26.1861L27.8441 9.72754H21.9248Z" stroke="black" stroke-width="0.105727"/>
<path d="M45.6742 9.72754H37.1562L39.4661 12.7594L35.3515 31.7805L40.8738 31.7444L45.6742 9.72754Z" stroke="black" stroke-width="0.105727"/>
</svg>
